<svg width="15" height="14" viewBox="0 0 15 14" fill="none" xmlns="http://www.w3.org/2000/svg">
<path d="M13.9717 0H1.19986C0.762565 0 0.407715 0.346034 0.407715 0.772466V13.227C0.407715 13.6534 0.762565 13.9995 1.19986 13.9995H8.07572V8.57807H6.20454V6.46492H8.07572V4.9075C8.07572 3.0991 9.20823 2.11478 10.8622 2.11478C11.6543 2.11478 12.3356 2.17236 12.5339 2.19789V4.08777L11.3864 4.08831C10.4867 4.08831 10.3123 4.50497 10.3123 5.11664V6.46547H12.4582L12.1785 8.57861H10.3123V14H13.9706C14.4079 14 14.7627 13.654 14.7627 13.2275V0.772466C14.7644 0.346034 14.4096 0 13.9717 0Z" fill="black"/>
</svg>
