<svg width="13" height="12" viewBox="0 0 13 12" fill="none" xmlns="http://www.w3.org/2000/svg">
<path d="M1.61532 10.8101C2.4333 11.6095 3.51065 11.9994 4.56805 11.9994C5.6454 11.9994 6.72275 11.6095 7.52079 10.8101L8.21907 10.1277C8.61809 9.73782 8.61809 9.13343 8.21907 8.7435C7.82005 8.35358 7.20158 8.35358 6.80256 8.7435L6.10428 9.42587C5.24639 10.2642 3.84982 10.2642 2.99193 9.42587C2.13404 8.58753 2.13404 7.22279 2.99193 6.38445L3.69021 5.70208C4.08923 5.31215 4.08923 4.70776 3.69021 4.31784C3.29119 3.92791 2.67272 3.92791 2.2737 4.31784L1.57541 5.00021C-0.0206593 6.6184 -0.0206593 9.23091 1.61532 10.8101Z" fill="black"/>
<path d="M9.35596 6.26808C8.95694 6.658 8.95694 7.26239 9.35596 7.65232C9.55547 7.84728 9.81483 7.94476 10.0542 7.94476C10.2937 7.94476 10.573 7.84728 10.7525 7.65232L11.4508 6.96995C12.2488 6.19009 12.6878 5.17628 12.6878 4.08449C12.6878 2.99269 12.2488 1.95938 11.4508 1.19903C9.81483 -0.399675 7.16135 -0.399675 5.52538 1.19903L4.8271 1.8814C4.42808 2.27132 4.42808 2.87571 4.8271 3.26564C5.22611 3.65557 5.84459 3.65557 6.24361 3.26564L6.94189 2.58327C7.79978 1.74492 9.19635 1.74492 10.0542 2.58327C10.4732 2.99269 10.6927 3.51909 10.6927 4.10398C10.6927 4.66938 10.4732 5.21527 10.0542 5.6247L9.35596 6.26808Z" fill="black"/>
<path d="M6.96192 4.20165L4.70747 6.40474C4.30845 6.79466 4.30845 7.39905 4.70747 7.78898C4.90698 7.98394 5.16634 8.08142 5.40575 8.08142C5.66511 8.08142 5.92447 7.98394 6.10403 7.78898L8.35849 5.58589C8.75751 5.19596 8.75751 4.59158 8.35849 4.20165C7.97942 3.83122 7.36094 3.83122 6.96192 4.20165Z" fill="black"/>
</svg>
