<svg width="49" height="37" viewBox="0 0 49 37" fill="none" xmlns="http://www.w3.org/2000/svg">
<rect x="1" y="1" width="47" height="35" rx="3" fill="white" stroke="black" stroke-width="2"/>
<path d="M11.3496 25H15.8496C19.5036 25 21.6276 22.534 21.6276 18.79V18.25C21.6276 14.578 19.5216 12.04 15.8496 12.04H11.3496V25ZM13.7076 23.056V13.984H15.7236C17.7576 13.984 19.2336 15.01 19.2336 17.584V19.456C19.2336 22.012 17.7576 23.056 15.7236 23.056H13.7076ZM27.5209 25.18C29.8609 25.18 31.4629 23.848 31.7509 22.174H29.4829C29.3029 23.038 28.6369 23.488 27.5569 23.488C26.2789 23.488 25.3789 22.768 25.3789 21.364V21.04H31.8229C32.1109 17.872 30.2929 15.802 27.4669 15.802C24.8389 15.802 23.1109 17.8 23.1109 20.302V20.716C23.1109 23.47 24.8929 25.18 27.5209 25.18ZM25.3969 19.492V19.384C25.3969 18.232 26.2429 17.458 27.4669 17.458C28.6549 17.458 29.5369 18.16 29.5369 19.384V19.492H25.3969ZM33.6164 25H35.8304V12.04H33.6164V25Z" fill="black"/>
</svg>
