<svg width="15" height="12" viewBox="0 0 15 12" fill="none" xmlns="http://www.w3.org/2000/svg">
<path d="M4.92139 12C10.3393 12 13.3022 7.38363 13.3022 3.38065C13.3022 3.24935 13.2998 3.11904 13.294 2.98922C13.8692 2.56163 14.3688 2.028 14.7634 1.42054C14.2359 1.66184 13.6679 1.82436 13.0719 1.89769C13.6799 1.52261 14.1467 0.92952 14.3674 0.221977C13.7984 0.568812 13.1678 0.821009 12.4972 0.957265C11.9595 0.368637 11.1945 0 10.347 0C8.7206 0 7.40153 1.35662 7.40153 3.02886C7.40153 3.26669 7.42754 3.49758 7.47812 3.71956C5.02978 3.59272 2.85943 2.38722 1.40642 0.554441C1.15349 1.00235 1.00751 1.52211 1.00751 2.07705C1.00751 3.12796 1.52734 4.05599 2.3184 4.59854C1.83519 4.58318 1.38136 4.44692 0.984389 4.2195C0.983907 4.23238 0.983906 4.24477 0.983906 4.25814C0.983906 5.72526 1.99899 6.95008 3.34697 7.22755C3.09934 7.29692 2.83919 7.33408 2.57036 7.33408C2.38103 7.33408 2.19603 7.31475 2.01681 7.27958C2.39163 8.48309 3.47898 9.3591 4.76867 9.38387C3.76033 10.1965 2.49039 10.6805 1.11013 10.6805C0.872618 10.6805 0.637999 10.6667 0.407715 10.6384C1.70993 11.4986 3.25785 12 4.92139 12Z" fill="black"/>
</svg>
